<?xml version="1.0" encoding="UTF-8" standalone="no"?>
<svg width="190px" height="32px" viewBox="0 0 190 32" version="1.1" xmlns="http://www.w3.org/2000/svg" xmlns:xlink="http://www.w3.org/1999/xlink">
    <!-- Generator: Sketch 39.1 (31720) - http://www.bohemiancoding.com/sketch -->
    <title>sharemark-logo-21</title>
    <desc>Created with Sketch.</desc>
    <defs></defs>
    <g id="sharemark-logo-21" stroke="none" stroke-width="1" fill="none" fill-rule="evenodd">
        <g id="Group" fill="#23282D">
            <path d="M21.1856533,3.18421643 C19.2326673,1.95298608 16.3456444,0.891580602 13.0340593,0.891580602 C7.38738213,0.891580602 3.48140997,4.54281545 3.48140997,9.72247418 C3.48140997,13.4161652 5.43439605,15.3691513 10.7414234,18.3835429 C13.373709,19.954423 14.2228334,20.8460036 14.2228334,22.671621 C14.2228334,25.0916255 12.3123035,26.7049618 9.68001796,26.7049618 C6.8779075,26.7049618 3.9908846,25.4312753 1.52842389,23.6905703 L0,28.4032106 C2.42000449,29.846722 5.9863269,31.1204086 9.68001796,31.1204086 C15.1568702,31.1204086 19.6572295,27.8088235 19.6572295,21.8649529 C19.6572295,18.3835429 18.213718,16.1333633 12.779322,13.1189717 C9.84984284,11.4207229 8.91580602,10.4442299 8.91580602,8.83089358 C8.91580602,7.00527616 10.1470364,5.30702739 12.8642344,5.30702739 C15.1993264,5.30702739 17.4070498,6.36843287 19.6572295,7.85440054 L21.1856533,3.18421643 Z M41.6070947,14.2652896 C41.6070947,11.4631792 40.0786709,9.72247418 37.0642793,9.72247418 C34.4744499,9.72247418 32.0969017,11.6754603 30.1014594,13.7133588 L32.3091828,0 L27.2568927,0.849124383 L22.5017961,30.6533902 L27.4691738,30.6533902 L29.4221599,18.0014369 C31.3751459,15.6238886 33.4555007,14.0954648 34.686731,14.0954648 C35.9604176,14.0954648 36.427436,14.8172205 36.427436,16.1333633 C36.427436,16.4305568 36.3849798,16.9400314 36.3425236,17.2796812 L34.1772564,30.6533902 L39.144634,30.6533902 L41.4797261,15.9635384 C41.5646385,15.49652 41.6070947,14.7747643 41.6070947,14.2652896 L41.6070947,14.2652896 Z M56.3394028,27.3842613 L56.5516839,30.6533902 L61.0944993,30.6533902 L61.0944993,25.3463628 L63.3446789,11.2508981 C60.9671307,10.3593175 58.8018635,9.89229906 56.381859,9.89229906 C50.0983386,9.89229906 44.2818366,15.0295016 44.2818366,24.0726762 C44.2818366,28.5730355 46.5320162,31.0779524 49.8860575,31.0779524 C52.306062,31.0779524 54.4713291,29.3797036 56.3394028,27.3842613 L56.3394028,27.3842613 Z M56.4667714,23.5632016 C54.7260665,25.4737315 53.1551863,26.7474181 51.6692187,26.7474181 C50.1407948,26.7474181 49.2916704,25.4312753 49.2916704,23.1810956 C49.2916704,17.6193309 52.4758868,13.8407274 55.8299282,13.8407274 C56.7215088,13.8407274 57.2734396,13.9680961 57.9527391,14.1803772 L56.4667714,23.5632016 Z M79.8601482,14.7747643 L79.8601482,9.72247418 C76.9731253,9.72247418 74.4257521,12.0575662 72.7275034,14.6898518 L72.4727661,10.1470364 L67.9299506,10.1470364 L67.9299506,15.114414 L65.4674899,30.6533902 L70.4348675,30.6533902 L72.260485,19.0203862 C74.0011899,16.7702066 76.718388,15.0719578 79.8601482,14.7747643 L79.8601482,14.7747643 Z M85.7191064,18.1288056 C86.5682308,15.1568702 88.2664796,13.1614279 90.2194656,13.1614279 C92.4696453,13.1614279 93.3612259,15.0719578 93.1489448,18.1288056 L85.7191064,18.1288056 Z M85.2096318,21.313022 L97.3521105,21.313022 C97.5643916,20.336529 97.7342164,18.9354737 97.7342164,17.7466996 C97.7342164,12.8217782 95.1443871,9.72247418 90.6440278,9.72247418 C85.2096318,9.72247418 80.412079,14.9021329 80.412079,22.6291648 C80.412079,28.2758419 83.9359452,31.0779524 88.7759542,31.0779524 C91.7903458,31.0779524 93.9131567,30.3561967 96.290705,28.9126852 L96.290705,25.0067131 C94.0829816,26.4077683 92.0875393,27.2993489 89.709991,27.2993489 C86.7380557,27.2993489 85.2096318,25.6011001 85.2096318,22.2470588 L85.2096318,21.313022 L85.2096318,21.313022 Z M118.452851,17.9589807 C120.320925,15.5814324 122.443736,14.0954648 123.505141,14.0954648 C124.778828,14.0954648 125.245846,14.8172205 125.245846,16.090907 C125.245846,16.3881006 125.20339,16.8975752 125.118478,17.2796812 L122.995667,30.6533902 L127.920588,30.6533902 L130.298137,15.9635384 C130.383049,15.4116075 130.425505,14.732308 130.425505,14.3077458 C130.425505,11.4207229 128.854625,9.72247418 125.925146,9.72247418 C123.547598,9.72247418 121.000225,11.5480916 118.877414,13.755815 C118.750045,11.3358105 117.34899,9.72247418 114.504423,9.72247418 C112.084419,9.72247418 109.409677,11.7603727 107.24441,14.0530085 L107.032128,10.1470364 L102.446857,10.1470364 L102.446857,15.114414 L99.984396,30.6533902 L104.951774,30.6533902 L106.90476,18.0014369 C108.81529,15.6238886 110.980557,14.0954648 112.084419,14.0954648 C113.400561,14.0954648 113.740211,14.8172205 113.740211,16.1333633 C113.740211,16.3881006 113.655299,16.8975752 113.612842,17.2796812 L111.447575,30.6533902 L116.414953,30.6533902 L118.452851,17.9589807 Z M145.115357,27.3842613 L145.327638,30.6533902 L149.870454,30.6533902 L149.870454,25.3463628 L152.120633,11.2508981 C149.743085,10.3593175 147.577818,9.89229906 145.157813,9.89229906 C138.874293,9.89229906 133.057791,15.0295016 133.057791,24.0726762 C133.057791,28.5730355 135.30797,31.0779524 138.662012,31.0779524 C141.082016,31.0779524 143.247283,29.3797036 145.115357,27.3842613 L145.115357,27.3842613 Z M145.242726,23.5632016 C143.502021,25.4737315 141.931141,26.7474181 140.445173,26.7474181 C138.916749,26.7474181 138.067625,25.4312753 138.067625,23.1810956 C138.067625,17.6193309 141.251841,13.8407274 144.605882,13.8407274 C145.497463,13.8407274 146.049394,13.9680961 146.728693,14.1803772 L145.242726,23.5632016 Z M168.636102,14.7747643 L168.636102,9.72247418 C165.749079,9.72247418 163.201706,12.0575662 161.503458,14.6898518 L161.24872,10.1470364 L156.705905,10.1470364 L156.705905,15.114414 L154.243444,30.6533902 L159.210822,30.6533902 L161.036439,19.0203862 C162.777144,16.7702066 165.494342,15.0719578 168.636102,14.7747643 L168.636102,14.7747643 Z M176.065941,18.5533678 L178.99542,0 L173.94313,0.849124383 L169.188033,30.6533902 L174.155411,30.6533902 L175.768747,20.4214414 L181.372968,30.9505837 L186.552627,30.1014594 L180.523844,19.4449484 L189.1,10.1470364 L183.36841,10.1470364 L176.065941,18.5533678 Z" id="Sharemark"></path>
        </g>
    </g>
</svg>